<svg xmlns="http://www.w3.org/2000/svg" width="100" height="99.624" viewBox="0 0 100 99.624">
    <defs>
        <clipPath id="prefix__clip-path"/>
    </defs>
    <g id="prefix__Mask_Group_11" data-name="Mask Group 11" transform="translate(-461.5 -1561.824)">
        <g id="prefix__stopwatch" transform="translate(459.887 1560.211)">
            <path id="prefix__Path_18" d="M80.645 82.258H63.971L72 75.231a6.414 6.414 0 0 0-.824-10.266l-9.027-5.644 11.164-12.556a26.245 26.245 0 0 0 20.84-11.294l6.515-9.411a5.3 5.3 0 0 0-4.355-8.318h-.887a5.309 5.309 0 0 0-4.285 2.184L86.1 26.85a21.009 21.009 0 0 1-13.369 8.285 11.286 11.286 0 1 0-16.1.348h-5.973c-.3 0-.608.019-.913.027A23.787 23.787 0 0 0 50 32.258 24.217 24.217 0 0 0 32.258 8.965V4.839h3.226V1.613H16.129v3.226h3.226v4.126a24.157 24.157 0 0 0-1.518 46.106 5.226 5.226 0 0 0 5.169 6.219h1.015a5.223 5.223 0 0 0 4.155-2.032l1.282-1.647a27.855 27.855 0 0 1 19.774-10.737l-28.067 28.07a6.072 6.072 0 0 0-1.023 7.315H9.677v3.226h74.194v-3.6l11.381 6.825-11.381 6.827v-3.6H14.516v3.226h66.129v6.076l20.878-12.529-20.878-12.528zM56.452 27.419a8.065 8.065 0 1 1 8.065 8.065 8.074 8.074 0 0 1-8.065-8.065zM22.581 4.839h6.452V8.3a24.177 24.177 0 0 0-3.226-.24 24.177 24.177 0 0 0-3.226.24zM4.839 32.258a20.968 20.968 0 1 1 41.935 0 20.71 20.71 0 0 1-.332 3.471c-1.135.129-2.256.318-3.369.547a17.737 17.737 0 1 0-21.689 13.137c-.429.527-.848 1.063-1.252 1.616l-.819 1.127a20.974 20.974 0 0 1-14.474-19.9zm19.076 14.363a14.391 14.391 0 0 1-7.139-3.052l2.187-2.187-2.281-2.282-2.188 2.19a14.46 14.46 0 0 1-3.1-7.419h3.126v-3.226h-3.135a14.446 14.446 0 0 1 3.09-7.437l2.206 2.206 2.281-2.281-2.206-2.206a14.446 14.446 0 0 1 7.437-3.09v3.131h3.226v-3.131a14.446 14.446 0 0 1 7.437 3.09l-2.206 2.207 2.281 2.281 2.206-2.206a14.446 14.446 0 0 1 3.09 7.437H37.1v3.226h3.131a14.305 14.305 0 0 1-.79 3.337 37.916 37.916 0 0 0-15.523 9.413zm28.4 35.637h-20.8l17.003-15.874 9.8 4.9-4.461 3.569a5.889 5.889 0 0 0-1.539 7.406zm5.271 0a2.745 2.745 0 0 1-1.716-4.887l8.4-6.718L47.956 62.5 27.632 81.466a3 3 0 0 1-2.1.792 2.948 2.948 0 0 1-2.085-5.034l29.779-29.782v-3.894h-1.613a31.09 31.09 0 0 0-24.7 12.081l-1.282 1.648a2.029 2.029 0 0 1-1.61.787h-1.015a2.039 2.039 0 0 1-1.648-3.239l1.382-1.9A34.626 34.626 0 0 1 50.658 38.71h18.489a24.271 24.271 0 0 0 19.566-9.965l5.037-6.924a2.077 2.077 0 0 1 1.676-.853h.887a2.077 2.077 0 0 1 2.074 2.074 2.051 2.051 0 0 1-.369 1.179L91.5 33.634a23.015 23.015 0 0 1-18.921 9.915h-.724L57.2 60.034 69.469 67.7a3.185 3.185 0 0 1 .41 5.1l-10.032 8.777a2.731 2.731 0 0 1-1.806.681z" data-name="Path 18"/>
            <path id="prefix__Path_19" d="M8.065 91.935h3.225v3.226H8.065z" data-name="Path 19"/>
            <path id="prefix__Path_20" d="M1.613 91.935h3.226v3.226H1.613z" data-name="Path 20"/>
            <path id="prefix__Path_21" d="M27.419 24.194h-3.225v8.732l3.7 3.7 2.281-2.281-2.756-2.755z" data-name="Path 21"/>
        </g>
    </g>
</svg>
