<svg xmlns="http://www.w3.org/2000/svg" width="100" height="100" viewBox="0 0 100 100">
    <defs>
        <clipPath id="prefix__clip-path"/>
    </defs>
    <g id="prefix__Mask_Group_8" data-name="Mask Group 8" transform="translate(-554.423 -1577.422)">
        <g id="prefix__appreciation" transform="translate(552.81 1575.809)">
            <path id="prefix__Path_9" d="M58.065 72.581H43.548V62.9a6.458 6.458 0 0 0-6.448-6.448h-1.616a1.613 1.613 0 0 0-1.613 1.613v9.01l-5.506 5.506H1.613v3.226h20.968v19.354H1.613v3.226h27.039l6.111 3.056a1.617 1.617 0 0 0 .721.169h19.355a4.845 4.845 0 0 0 4.839-4.839V74.194a1.613 1.613 0 0 0-1.613-1.613zm-1.613 24.193a1.616 1.616 0 0 1-1.613 1.613H35.865l-6.111-3.056a1.617 1.617 0 0 0-.721-.169h-3.227V75.806h3.226a1.609 1.609 0 0 0 1.14-.473l6.452-6.452a1.609 1.609 0 0 0 .473-1.14v-8.064a3.229 3.229 0 0 1 3.226 3.223v11.29a1.613 1.613 0 0 0 1.613 1.613h14.516v3.226h-12.9v3.226h12.9v3.226h-12.9v3.229h12.9v3.226h-12.9v3.226h12.9z" data-name="Path 9"/>
            <path id="prefix__Path_10" d="M101.14 18.215L85.013 2.087a1.609 1.609 0 0 0-1.142-.474H48.387a1.613 1.613 0 0 0-1.613 1.613v64.516a1.613 1.613 0 0 0 1.613 1.613H100a1.613 1.613 0 0 0 1.613-1.613V19.355a1.608 1.608 0 0 0-.473-1.14zM85.484 7.119l10.622 10.623H85.484zm12.9 59.01H50V4.839h32.258v14.516a1.613 1.613 0 0 0 1.613 1.613h14.516z" data-name="Path 10"/>
            <path id="prefix__Path_11" d="M70.073 44.89a1.613 1.613 0 0 0 2.508-1.342V32.126a12.9 12.9 0 1 0-12.9 0v11.422a1.612 1.612 0 0 0 2.506 1.342l3.945-2.629zM56.452 20.968a9.677 9.677 0 1 1 9.677 9.677 9.687 9.687 0 0 1-9.677-9.677zM62.9 40.534v-7.089a12.455 12.455 0 0 0 6.452 0v7.089l-2.331-1.553a1.611 1.611 0 0 0-1.789 0z" data-name="Path 11"/>
            <path id="prefix__Path_12" d="M66.129 29.032a8.074 8.074 0 0 0 8.065-8.065h-3.226a4.845 4.845 0 0 1-4.839 4.839z" data-name="Path 12"/>
            <path id="prefix__Path_13" d="M66.129 12.9a8.074 8.074 0 0 0-8.065 8.065h3.226a4.845 4.845 0 0 1 4.839-4.839z" data-name="Path 13"/>
            <path id="prefix__Path_14" d="M82.258 45.161v14.516h-3.226v-11.29h-3.226v11.29h-3.225v-8.064h-3.226v8.065h-3.226V62.9h29.032v-3.223h-3.226V41.935H88.71v17.742h-3.226V45.161z" data-name="Path 14"/>
        </g>
    </g>
</svg>
