<svg xmlns="http://www.w3.org/2000/svg" width="52.013" height="100" viewBox="0 0 52.013 100">
    <defs>
        <clipPath id="prefix__clip-path"/>
    </defs>
    <g id="prefix__Mask_Group_7" data-name="Mask Group 7" transform="translate(-507.493 -1557.21)">
        <g id="prefix__medal_1_" data-name="medal (1)" transform="translate(483.5 1557.21)">
            <path id="prefix__Path_6" d="M47.431 68.088l-1.353 2.741-3.024.44a2.865 2.865 0 0 0-1.588 4.886l2.188 2.133-.516 3.012a2.865 2.865 0 0 0 4.156 3.02L50 82.9l2.705 1.422a2.865 2.865 0 0 0 4.156-3.02l-.517-3.012 2.188-2.133a2.865 2.865 0 0 0-1.588-4.886l-3.025-.44-1.353-2.74a2.864 2.864 0 0 0-5.135-.003zm1.26 4.068L50 69.5l1.309 2.653a2.863 2.863 0 0 0 2.157 1.567l2.928.426-2.119 2.065a2.865 2.865 0 0 0-.823 2.535l.5 2.916-2.618-1.377a2.864 2.864 0 0 0-2.666 0l-2.619 1.377.5-2.915a2.865 2.865 0 0 0-.824-2.536l-2.118-2.065 2.927-.425a2.864 2.864 0 0 0 2.157-1.567z" data-name="Path 6"/>
            <path id="prefix__Path_7" d="M51.988 60.859a1.465 1.465 0 0 0 1.112 1.747 14.287 14.287 0 1 1-6.2 0 1.465 1.465 0 1 0-.633-2.86 17.218 17.218 0 1 0 7.469 0 1.466 1.466 0 0 0-1.748 1.113z" data-name="Path 7"/>
            <path id="prefix__Path_8" d="M65.88 24.016a1.464 1.464 0 0 0 1.911-.8l8.017-19.587A2.633 2.633 0 0 0 73.372 0H62.751a2.623 2.623 0 0 0-2.436 1.635L50 26.836 39.685 1.635A2.623 2.623 0 0 0 37.249 0H26.628a2.633 2.633 0 0 0-2.436 3.629l16.927 41.353a4.381 4.381 0 0 0-3.027 4.16v7.218a23.448 23.448 0 1 0 23.817 0v-7.218a4.38 4.38 0 0 0-3.027-4.16l6.3-15.4a1.465 1.465 0 0 0-2.712-1.11L55.8 44.769h-9.975L62.951 2.93h9.978L65.08 22.105a1.465 1.465 0 0 0 .8 1.911zm4.638 52.537A20.518 20.518 0 1 1 50 56.034a20.541 20.541 0 0 1 20.519 20.518zM57.535 47.7a1.445 1.445 0 0 1 1.444 1.444v5.745A23.518 23.518 0 0 0 50 53.1h-.007a23.526 23.526 0 0 0-8.971 1.783v-5.74a1.445 1.445 0 0 1 1.444-1.443h15.069zm-14.107-4.81L27.071 2.93h9.978L48.417 30.7z" data-name="Path 8"/>
        </g>
    </g>
</svg>
