<svg xmlns="http://www.w3.org/2000/svg" width="99.983" height="100" viewBox="0 0 99.983 100">
    <defs>
        <clipPath id="prefix__clip-path"/>
    </defs>
    <g id="prefix__Mask_Group_10" data-name="Mask Group 10" transform="translate(-470.008 -1555.636)">
        <g id="prefix__XMLID_1258_" transform="translate(470 1555.636)">
            <g id="prefix__XMLID_1850_">
                <path id="prefix__XMLID_1911_" d="M99.42 42.059a1.955 1.955 0 0 0-1.766-.534l-16.832 3.388a1.953 1.953 0 0 0-1 3.3l2.278 2.273-8.937 8.937-6.916-6.923a1.953 1.953 0 0 0-2.762 0L55 60.994l3.18-11.443a9.169 9.169 0 0 0-5.609-11.036l2.546-7.272c.7.062 1.4.093 2.1.093A24.282 24.282 0 0 0 72.7 25.74l.465-.386a5.44 5.44 0 0 0 .892-7.529 5.417 5.417 0 0 0-7.752-.858l-.529.439a13.448 13.448 0 0 1-2.532 1.66 8.1 8.1 0 0 1-9.271-1.631 8.925 8.925 0 1 0-9.842-3.281 10.174 10.174 0 0 0-5.251 2.961 1.951 1.951 0 0 0-.23.236 26.494 26.494 0 0 1-13.273 8.772 5.4 5.4 0 0 0-3.216 2.546l-4-4a4.5 4.5 0 0 0-6.352 0L6.563 29.9l-5.239 5.243a4.492 4.492 0 0 0 0 6.353l14.433 14.433a4.492 4.492 0 0 0 6.353 0l5.424-5.424-2.572 6.744a1.953 1.953 0 1 0 3.65 1.392l6.405-16.8h14.342a5.251 5.251 0 0 1 5.059 6.659L49.98 64.45a1.67 1.67 0 0 1-1.6 1.219 1.665 1.665 0 0 1-1.645-1.927L49.092 48.9a1.953 1.953 0 0 0-1.929-2.26h-4.63a1.953 1.953 0 0 0-1.743 1.071c-.114.225-11.445 22.63-15.264 30.2a2.005 2.005 0 0 1-2.065 1.074l-.093-.013A1.91 1.91 0 0 1 21.84 76.4l1.2-3.155a1.953 1.953 0 0 0-3.65-1.392l-1.2 3.155a5.817 5.817 0 0 0 4.653 7.836l.093.012a5.923 5.923 0 0 0 6.078-3.186c3.335-6.613 12.406-24.55 14.72-29.125h1.141l-2 12.585a5.569 5.569 0 0 0 3.808 6.181L24.926 91.065a1.953 1.953 0 0 0 0 2.762l5.6 5.6a1.953 1.953 0 0 0 2.762 0l10.77-10.768A1.953 1.953 0 1 0 41.3 85.9l-9.388 9.388-2.84-2.84 35.8-35.8 6.919 6.919a1.953 1.953 0 0 0 2.762 0l11.7-11.7a1.953 1.953 0 0 0 0-2.762l-1.082-1.082 10.38-2.089-2.089 10.38-1.607-1.607a1.954 1.954 0 0 0-2.762 0l-15.92 15.92-6.919-6.919a1.954 1.954 0 0 0-2.762 0L52.343 74.849a1.953 1.953 0 0 0 2.762 2.762l9.761-9.761 6.919 6.919a1.954 1.954 0 0 0 2.762 0l15.92-15.92 2.8 2.8a1.953 1.953 0 0 0 3.3-1l3.387-16.832a1.954 1.954 0 0 0-.534-1.758zM51.335 3.906a5.01 5.01 0 1 1-5.01 5.01 5.016 5.016 0 0 1 5.01-5.01zM32.01 38.522l-2.377-2.377q1.693-.552 3.323-1.261zm-6.591-6.774a1.514 1.514 0 0 1 1.034-1.871 30.463 30.463 0 0 0 8.9-4.218l-1.1 4.24a33.682 33.682 0 0 1-6.964 2.884c-.045.013-.092.024-.139.033a1.5 1.5 0 0 1-1.024-.176l-.572-.572a1.486 1.486 0 0 1-.135-.32zm-10.856-4.32a.587.587 0 0 1 .829 0l7.119 7.119a5.368 5.368 0 0 0 1.167 1.167l6.147 6.147a.586.586 0 0 1 0 .828l-3.858 3.858-4.29-4.29.817-.817a1.953 1.953 0 0 0 0-2.762l-4.4-4.4a1.954 1.954 0 0 0-2.762 0l-.817.817-3.814-3.814zm2.673 13.747a.733.733 0 0 1-1.037 0l-.6-.6a.733.733 0 0 1 0-1.037l1.116-1.116 1.634 1.634zm2.112 11.992a.586.586 0 0 1-.828 0L4.086 38.734a.586.586 0 0 1 0-.828l3.857-3.858 4 4a4.645 4.645 0 0 0 .9 5.3l.6.6a4.645 4.645 0 0 0 5.3.9l4.473 4.473zm27.9-15.228H36.2l4.01-15.423a6.261 6.261 0 0 1 6.058-4.683 6.19 6.19 0 0 1 4.585 2A12.041 12.041 0 0 0 65 22.553a17.34 17.34 0 0 0 3.269-2.143l.529-.439a1.512 1.512 0 0 1 2.165.241 1.568 1.568 0 0 1-.3 2.137l-.465.386a20.259 20.259 0 0 1-16.107 4.451 1.951 1.951 0 0 0-2.144 1.284l-3.315 9.468z"/>
                <path id="prefix__XMLID_1920_" d="M48.238 79.838a1.954 1.954 0 1 0 1.381.572 1.967 1.967 0 0 0-1.381-.572z"/>
                <path id="prefix__XMLID_1921_" d="M24 67.21a1.951 1.951 0 1 0-1.383-.572A1.967 1.967 0 0 0 24 67.21z"/>
            </g>
        </g>
    </g>
</svg>
