<svg xmlns="http://www.w3.org/2000/svg" width="99.831" height="100" viewBox="0 0 99.831 100">
    <path d="M97.8 60.681l-3.3-1.456c-.745-.328-1.934 2.367-1.189 2.7l3.3 1.458c.224.1.271.236.271.336s-.047.236-.271.334l-27 11.906a.718.718 0 0 1-.556 0l-13.211-5.832 9.795-4.507c3.535 2.142 9.371.51 9.371-3.089 0-2.268-2.492-4.045-5.673-4.045-3.575 0-6.194 2.231-5.587 4.758l-11.506 5.3-10.182-4.494c-.362-.159-.365-.51 0-.67l27-11.906a.721.721 0 0 1 .558 0c13.261 5.846 4.543 2 23.694 10.448.745.329 1.189-2.7 1.189-2.7l-16.057-7.074V17.6a4.873 4.873 0 0 0-4.867-4.868H60.143V8.109A8.118 8.118 0 0 0 52.036 0h-5.57c-.816 0-.816 2.947 0 2.947h5.57A5.168 5.168 0 0 1 57.2 8.109v4.627h-2.4V8.109a2.773 2.773 0 0 0-2.769-2.77h-25.62a2.774 2.774 0 0 0-2.77 2.77v4.627H21.25V8.109a5.169 5.169 0 0 1 5.161-5.162h20.054S47.279 0 46.465 0H26.411A8.12 8.12 0 0 0 18.3 8.109v4.627H4.868A4.873 4.873 0 0 0 0 17.6v35.752c0 .813 2.947.813 2.947 0V36.668a15.893 15.893 0 0 0 9.425 6.268v4.322a3.153 3.153 0 0 0 3.149 3.149h4.427a3.153 3.153 0 0 0 3.152-3.149v-3.937h32.247v3.937a3.153 3.153 0 0 0 3.153 3.149h4.428a3.152 3.152 0 0 0 3.149-3.149v-4.322a15.887 15.887 0 0 0 9.423-6.268v14.179l-4.7-2.069a3.666 3.666 0 0 0-2.936 0l-27 11.9a3.281 3.281 0 0 0 0 6.066l5.144 2.267v.967H11.68a8.74 8.74 0 0 1-8.733-8.73v-7.9c0-.813-2.947-.813-2.947 0v7.9a11.691 11.691 0 0 0 11.68 11.681h34.337v10.927c0 2.168 1.878 3.92 4.877 5.244v1.94l-4.971 6.6a1.474 1.474 0 1 0 2.354 1.773l2.616-3.473v2.586a1.474 1.474 0 1 0 2.947 0v-2.585l2.615 3.471a1.474 1.474 0 1 0 2.354-1.773l-4.97-6.6v-.874c13.713 4.07 38.816 1.607 38.816-6.312V69.015l5.145-2.268a3.281 3.281 0 0 0 0-6.066zm-28.464.751c1.788 0 2.725.816 2.725 1.1s-.937 1.1-2.725 1.1-2.726-.813-2.726-1.1.938-1.099 2.727-1.099zM26.588 8.286h25.269v4.45H26.588zm-6.436 38.972a.2.2 0 0 1-.2.2h-4.43a.2.2 0 0 1-.2-.2v-3.946c.176.005.352.009.529.009h4.3zm0-6.884h-4.3c-.178 0-.353-.007-.529-.014v-4.024a.2.2 0 0 1 .2-.2h4.427a.2.2 0 0 1 .2.2zm42.974 6.884a.2.2 0 0 1-.2.2H58.5a.2.2 0 0 1-.2-.2v-3.937h4.3q.264 0 .528-.009zm0-6.9c-.175.007-.351.014-.528.014h-4.3v-4.036a.2.2 0 0 1 .2-.2h4.428a.2.2 0 0 1 .2.2zm2.948-.466v-3.557a3.153 3.153 0 0 0-3.149-3.149H58.5a3.153 3.153 0 0 0-3.149 3.149v4.038H23.1v-4.038a3.153 3.153 0 0 0-3.149-3.149h-4.429a3.153 3.153 0 0 0-3.149 3.149v3.559a12.923 12.923 0 0 1-9.426-12.422V17.6a1.921 1.921 0 0 1 1.92-1.92h68.712A1.915 1.915 0 0 1 75.5 17.6v9.868a12.922 12.922 0 0 1-9.425 12.422zm-15.18 45.939c-1.462-.823-1.929-1.564-1.929-1.974V70.316l1.929.851zm38.815-1.974c0 .639-1.13 2.071-5.362 3.384-8.145 2.524-21.873 2.65-30.506-.156V72.442c1.4.649-.641-.259 14.028 6.209a3.639 3.639 0 0 0 2.935 0l18.9-8.335zm0 0" data-name="Mask Group 6"/>
</svg>
