<svg xmlns="http://www.w3.org/2000/svg" width="100" height="98.602" viewBox="0 0 100 98.602">
    <g data-name="Group 7">
        <path d="M73.01 46.044a8.217 8.217 0 1 1 8.217-8.217 8.217 8.217 0 0 1-8.217 8.217zm0-13.147a4.93 4.93 0 1 0 4.93 4.93 4.93 4.93 0 0 0-4.93-4.927zm0 0" data-name="Path 3" transform="translate(0 -.031)"/>
        <path d="M27 46.044a8.217 8.217 0 1 1 8.217-8.217A8.217 8.217 0 0 1 27 46.044zM27 32.9a4.93 4.93 0 1 0 4.93 4.93A4.93 4.93 0 0 0 27 32.9zm0 0" data-name="Path 4" transform="translate(0 -.031)"/>
        <path d="M82.87 56.631L98.537 42.39a4.592 4.592 0 0 0-6.137-6.832L80.6 46.044H64.015L51.646 61.163V19.751H68.08v6.573h27.078l-3.944-9.86L95.158 6.6H76.3V.03H48.36v61.133L35.992 46.044H19.4L7.6 35.556a4.593 4.593 0 0 0-6.133 6.834l15.669 14.241v38.714H.7v3.287h98.6v-3.287H82.87zM76.3 9.89h14l-2.629 6.573 2.629 6.574H71.366v-3.286H76.3zM51.646 3.317H73.01v13.146H51.646zM33.569 95.345H28.64V72.338h-3.287v23.007h-4.93V55.178L3.68 39.964a1.316 1.316 0 0 1-.2-1.691 1.3 1.3 0 0 1 1.943-.253l12.731 11.31h16.28l12.22 14.936a1.336 1.336 0 1 1-2.049 1.716L33.569 53.111zm29.581 0H36.857v-33.36l5.259 6.13a4.623 4.623 0 0 0 6.08.831c.061-.041.114-.093.174-.138V82.2h3.286V68.811c.062.047.116.1.182.145a4.624 4.624 0 0 0 6.062-.836l5.246-6.135zm16.433 0h-4.93V72.338h-3.286v23.007h-4.93V53.111L55.4 65.987a1.335 1.335 0 0 1-1.757.235 1.331 1.331 0 0 1-.293-1.951l12.22-14.94h16.28l12.731-11.316a1.272 1.272 0 0 1 1.029-.315 1.29 1.29 0 0 1 .922.579 1.3 1.3 0 0 1-.206 1.681L79.583 55.178zm0 0" data-name="Path 5" transform="translate(0 -.031)"/>
    </g>
</svg>
