<svg xmlns="http://www.w3.org/2000/svg" width="100" height="99.971" viewBox="0 0 100 99.971">
    <defs>
        <clipPath id="prefix__clip-path"/>
    </defs>
    <g id="prefix__Mask_Group_9" data-name="Mask Group 9" transform="translate(-554 -1576.954)">
        <g id="prefix__project" transform="translate(554 1576.94)">
            <g id="prefix__Group_9" data-name="Group 9">
                <g id="prefix__Group_8" data-name="Group 8">
                    <path id="prefix__Path_15" d="M98.576 26.259l-6.455-.921a1.659 1.659 0 0 1-.762-2.97l5.217-3.913a1.659 1.659 0 0 0 .332-2.323l-5.977-7.968a1.659 1.659 0 0 0-2.323-.332l-5.215 3.913a1.659 1.659 0 0 1-2.645-1.561l.923-6.455a1.659 1.659 0 0 0-1.407-1.878L70.412.444a1.659 1.659 0 0 0-1.878 1.406l-.923 6.455a1.659 1.659 0 0 1-2.97.762L60.73 3.85a1.659 1.659 0 0 0-2.323-.332L53.421 7.26a32.1 32.1 0 0 0-6.787 0 31.527 31.527 0 0 0-27.8 28.27c-.045.47-.061.936-.085 1.4h-.5a1.659 1.659 0 0 0-1.623 1.327l-1.147 5.452-4.593-3.168a1.659 1.659 0 0 0-2.116.192L3.8 45.714a1.659 1.659 0 0 0-.192 2.114l3.153 4.585L1.3 53.56A1.659 1.659 0 0 0 0 55.184v6.637a1.659 1.659 0 0 0 1.317 1.624l5.454 1.147-3.152 4.585a1.659 1.659 0 0 0 .192 2.114l4.978 4.978a1.659 1.659 0 0 0 2.116.192L15.49 73.3l1.147 5.454a1.659 1.659 0 0 0 1.623 1.327h6.64a1.659 1.659 0 0 0 1.624-1.317l1.147-5.454 4.585 3.153a1.659 1.659 0 0 0 2.114-.192l2.577-2.585v4.729a6.616 6.616 0 0 0 3.319 5.715v9.219a6.637 6.637 0 0 0 6.634 6.636h6.637a6.637 6.637 0 0 0 6.637-6.637v-9.219a6.616 6.616 0 0 0 3.319-5.715v-6.567a8.131 8.131 0 0 1 3.838-6.773 31.843 31.843 0 0 0 3.906-2.987l-2.214-2.472a28.248 28.248 0 0 1-3.5 2.673 11.429 11.429 0 0 0-5.353 9.559v6.568a3.318 3.318 0 0 1-3.319 3.319H43.58a3.318 3.318 0 0 1-3.319-3.319v-6.706A11.164 11.164 0 0 0 35 62.344a28.124 28.124 0 0 1 14.86-51.936 1.8 1.8 0 0 0-.065.181 1.659 1.659 0 0 0 .317 1.23l3.911 5.215a1.624 1.624 0 0 1 .1 1.842 1.649 1.649 0 0 1-1.659.8l-6.455-.923a1.659 1.659 0 0 0-1.878 1.407l-1.409 9.855a1.66 1.66 0 0 0 1.407 1.878l6.455.923a1.659 1.659 0 0 1 .762 2.97L46.132 39.7a1.659 1.659 0 0 0-.332 2.323l5.973 7.965a1.659 1.659 0 0 0 2.323.332l5.217-3.92a1.659 1.659 0 0 1 2.637 1.561l-.921 6.455a1.659 1.659 0 0 0 1.407 1.884l9.856 1.409a1.838 1.838 0 0 0 .234.015 1.659 1.659 0 0 0 1.645-1.424l.921-6.455a1.659 1.659 0 0 1 2.97-.762l3.913 5.217a1.659 1.659 0 0 0 2.323.332l7.965-5.973a1.659 1.659 0 0 0 .332-2.323l-3.911-5.215a1.631 1.631 0 0 1-.1-1.842 1.611 1.611 0 0 1 1.659-.8l6.457.921a1.659 1.659 0 0 0 1.878-1.407l1.407-9.856a1.659 1.659 0 0 0-1.409-1.878zm-55 58.792h13.278v3.319H43.58zm0 6.637h13.278v1.659a3.318 3.318 0 0 1-3.319 3.319H46.9a3.318 3.318 0 0 1-3.319-3.319zM30.37 63.074a31.362 31.362 0 0 0 2.836 2.066 8.1 8.1 0 0 1 3.343 4.246l-3.559 3.553-3.446-2.376a3.319 3.319 0 0 0-5.131 2.049l-.869 4.143H19.6l-.869-4.137a3.319 3.319 0 0 0-5.131-2.049l-3.448 2.369-3.024-3.016L9.5 66.477a3.319 3.319 0 0 0-2.048-5.132l-4.137-.871v-3.943l4.137-.871A3.319 3.319 0 0 0 9.5 50.538l-2.372-3.455 3.023-3.017 3.45 2.376a3.319 3.319 0 0 0 5.129-2.051l.29-1.381a31.6 31.6 0 0 0 1.316 5.627A9.956 9.956 0 1 0 30.37 63.074zm-2.577-2.338a6.627 6.627 0 1 1-6.223-8.871h.063a31.426 31.426 0 0 0 6.16 8.871zm67.723-24.86l-4.816-.687a4.978 4.978 0 0 0-4.682 7.911l2.915 3.888-5.31 3.982-2.917-3.886A4.978 4.978 0 0 0 71.8 49.37l-.672 4.819-6.569-.939.687-4.812a4.978 4.978 0 0 0-7.915-4.688l-3.888 2.915-3.982-5.31 3.886-2.917a4.978 4.978 0 0 0-2.282-8.91l-4.812-.687.939-6.569 4.808.687a4.978 4.978 0 0 0 4.688-7.915l-2.925-3.891 5.31-3.982 2.917 3.888a4.978 4.978 0 0 0 8.91-2.282l.687-4.812 6.569.938-.686 4.811a4.978 4.978 0 0 0 7.914 4.686l3.888-2.915 3.982 5.31-3.888 2.917a4.978 4.978 0 0 0 2.282 8.91l4.812.687z" data-name="Path 15"/>
                </g>
            </g>
            <g id="prefix__Group_11" data-name="Group 11">
                <g id="prefix__Group_10" data-name="Group 10">
                    <path id="prefix__Path_16" d="M71.35 15.8a13.274 13.274 0 1 0 13.274 13.273A13.274 13.274 0 0 0 71.35 15.8zm0 23.23a9.956 9.956 0 1 1 9.956-9.956 9.956 9.956 0 0 1-9.956 9.955z" data-name="Path 16"/>
                </g>
            </g>
            <g id="prefix__Group_13" data-name="Group 13">
                <g id="prefix__Group_12" data-name="Group 12">
                    <path id="prefix__Rectangle_1095" d="M0 0H3.319V4.978H0z" data-name="Rectangle 1095" transform="translate(48.558 73.436)"/>
                </g>
            </g>
            <g id="prefix__Group_15" data-name="Group 15">
                <g id="prefix__Group_14" data-name="Group 14">
                    <path id="prefix__Path_17" d="M42.959 57.14a19.912 19.912 0 0 1-3.362-35.4l-1.774-2.808a23.23 23.23 0 0 0 3.931 41.293 10.593 10.593 0 0 1 6.8 9.889h3.319a13.883 13.883 0 0 0-8.914-12.974z" data-name="Path 17"/>
                </g>
            </g>
            <g id="prefix__Group_17" data-name="Group 17">
                <g id="prefix__Group_16" data-name="Group 16">
                    <path id="prefix__Rectangle_1096" d="M0 0H11.615V3.319H0z" data-name="Rectangle 1096" transform="translate(81.744 61.821)"/>
                </g>
            </g>
            <g id="prefix__Group_19" data-name="Group 19">
                <g id="prefix__Group_18" data-name="Group 18">
                    <path id="prefix__Rectangle_1097" d="M0 0H3.319V12.959H0z" data-name="Rectangle 1097" transform="rotate(-50.201 117.483 -47.82)"/>
                </g>
            </g>
            <g id="prefix__Group_21" data-name="Group 21">
                <g id="prefix__Group_20" data-name="Group 20">
                    <path id="prefix__Rectangle_1098" d="M0 0H3.319V11.615H0z" data-name="Rectangle 1098" transform="translate(71.788 75.096)"/>
                </g>
            </g>
            <g id="prefix__Group_23" data-name="Group 23">
                <g id="prefix__Group_22" data-name="Group 22">
                    <path id="prefix__Rectangle_1099" d="M0 0H13.682V3.317H0z" data-name="Rectangle 1099" transform="rotate(-14.035 117.355 7.46)"/>
                </g>
            </g>
            <g id="prefix__Group_25" data-name="Group 25">
                <g id="prefix__Group_24" data-name="Group 24">
                    <path id="prefix__Rectangle_1100" d="M0 0H3.317V14.273H0z" data-name="Rectangle 1100" transform="rotate(-54.48 13.62 1.543)"/>
                </g>
            </g>
            <g id="prefix__Group_27" data-name="Group 27">
                <g id="prefix__Group_26" data-name="Group 26">
                    <path id="prefix__Rectangle_1101" d="M0 0H3.318V13.7H0z" data-name="Rectangle 1101" transform="rotate(-14.342 12.656 -73.77)"/>
                </g>
            </g>
        </g>
    </g>
</svg>
